<svg width="16" height="16" viewBox="0 0 16 16" fill="none" xmlns="http://www.w3.org/2000/svg">
<g id="Mid Dark Mode Icon" clip-path="url(#clip0_358_14)">
<g id="Subtract">
<mask id="path-1-inside-1_358_14" fill="white">
<path fill-rule="evenodd" clip-rule="evenodd" d="M3.80778 3.2203C1.15255 5.87554 1.15255 10.1805 3.80778 12.8358C6.46302 15.491 10.768 15.491 13.4233 12.8358C14.6619 11.5971 15.3228 9.99941 15.4057 8.37766C15.2025 8.70145 14.9599 9.00763 14.6782 9.28942C12.6557 11.3119 9.3766 11.3119 7.35413 9.28942C5.33166 7.26695 5.33166 3.98787 7.35413 1.9654C7.63592 1.68361 7.94211 1.44108 8.26589 1.23781C6.64415 1.3208 5.04645 1.98163 3.80778 3.2203Z"/>
</mask>
<path d="M15.4057 8.37766L16.4044 8.42877C16.4277 7.97413 16.141 7.56116 15.7069 7.42408C15.2728 7.287 14.8009 7.46041 14.5588 7.84597L15.4057 8.37766ZM8.26589 1.23781L8.79759 2.08475C9.18314 1.8427 9.35656 1.3708 9.21948 0.936692C9.0824 0.502588 8.66943 0.215853 8.21479 0.239118L8.26589 1.23781ZM4.51489 12.1287C2.25018 9.86395 2.25018 6.19212 4.51489 3.92741L3.10068 2.51319C0.0549144 5.55896 0.0549145 10.4971 3.10068 13.5429L4.51489 12.1287ZM12.7161 12.1287C10.4514 14.3934 6.77961 14.3934 4.51489 12.1287L3.10068 13.5429C6.14644 16.5886 11.0846 16.5886 14.1304 13.5429L12.7161 12.1287ZM14.4071 8.32656C14.3362 9.71072 13.7731 11.0717 12.7161 12.1287L14.1304 13.5429C15.5508 12.1225 16.3093 10.2881 16.4044 8.42877L14.4071 8.32656ZM14.5588 7.84597C14.3951 8.10666 14.1994 8.35393 13.971 8.58232L15.3853 9.99653C15.7205 9.66133 16.0098 9.29623 16.2527 8.90936L14.5588 7.84597ZM13.971 8.58232C12.3391 10.2143 9.69319 10.2143 8.06124 8.58232L6.64702 9.99653C9.06002 12.4095 12.9723 12.4095 15.3853 9.99653L13.971 8.58232ZM8.06124 8.58232C6.42929 6.95037 6.42929 4.30446 8.06124 2.67251L6.64702 1.25829C4.23403 3.67129 4.23403 7.58353 6.64702 9.99653L8.06124 8.58232ZM8.06124 2.67251C8.28962 2.44412 8.5369 2.24841 8.79759 2.08475L7.7342 0.390877C7.34733 0.63375 6.98222 0.923095 6.64702 1.25829L8.06124 2.67251ZM4.51489 3.92741C5.57181 2.87048 6.93283 2.30734 8.317 2.2365L8.21479 0.239118C6.35546 0.334266 4.52109 1.09278 3.10068 2.51319L4.51489 3.92741Z" fill="#f2f3f4" mask="url(#path-1-inside-1_358_14)"/>
</g>
</g>
<defs>
<clipPath id="clip0_358_14">
<rect width="16" height="16" fill="white"/>
</clipPath>
</defs>
</svg>
