<svg width="16" height="16" viewBox="0 0 16 16" fill="none" xmlns="http://www.w3.org/2000/svg">
<g id="Small User Icon">
<g id="UserBody">
<mask id="path-1-inside-1_349_2" fill="white">
<path fill-rule="evenodd" clip-rule="evenodd" d="M6.02461 7.97437C3.66612 8.74805 2 10.6396 2 12.8503V16H14.8V12.8503C14.8 10.6863 13.2035 8.82808 10.9239 8.02487C10.2949 8.6288 9.44081 9.00001 8.5 9.00001C7.53324 9.00001 6.65803 8.60804 6.02461 7.97437Z"/>
</mask>
<path d="M6.02461 7.97437L6.73186 7.2674L6.29716 6.83253L5.71291 7.02418L6.02461 7.97437ZM2 16H1V17H2V16ZM14.8 16V17H15.8V16H14.8ZM10.9239 8.02487L11.2562 7.0817L10.6754 6.87707L10.2312 7.30357L10.9239 8.02487ZM5.71291 7.02418C3.06236 7.89367 1 10.0945 1 12.8503H3C3 11.1847 4.26987 9.60242 6.33631 8.92455L5.71291 7.02418ZM1 12.8503V16H3V12.8503H1ZM2 17H14.8V15H2V17ZM15.8 16V12.8503H13.8V16H15.8ZM15.8 12.8503C15.8 10.1534 13.8227 7.98597 11.2562 7.0817L10.5915 8.96803C12.5844 9.67018 13.8 11.2192 13.8 12.8503H15.8ZM10.2312 7.30357C9.78105 7.73586 9.17242 8.00001 8.5 8.00001V10C9.7092 10 10.8088 9.52175 11.6165 8.74617L10.2312 7.30357ZM8.5 8.00001C7.80918 8.00001 7.1854 7.72113 6.73186 7.2674L5.31736 8.68133C6.13065 9.49496 7.2573 10 8.5 10V8.00001Z" fill="#101720" mask="url(#path-1-inside-1_349_2)"/>
</g>
<rect id="UserHead" x="5.5" y="0.5" width="6" height="7" rx="3" stroke="black"/>
</g>
</svg>
